<svg width="92" height="30" viewBox="0 0 92 30" fill="none" xmlns="http://www.w3.org/2000/svg">
<path d="M8.904 0.917496C12.872 0.917496 15.688 1.7975 17.352 3.5575L16.392 4.61349C14.856 3.10949 12.424 2.35749 9.096 2.35749C4.104 2.35749 1.608 4.34149 1.608 8.30949C1.608 9.8455 2.216 11.0775 3.432 12.0055C4.648 12.9015 6.12 13.5895 7.848 14.0695C9.608 14.5495 11.352 15.0615 13.08 15.6055C14.84 16.1175 16.328 16.9655 17.544 18.1495C18.76 19.3015 19.368 20.8215 19.368 22.7095C19.368 24.9175 18.456 26.6775 16.632 27.9895C14.808 29.3015 12.168 29.9575 8.712 29.9575C7.016 29.9575 5.336 29.7335 3.672 29.2855C2.04 28.8375 0.824 28.1815 0.024 27.3175L0.984 26.2615C2.616 27.7655 5.128 28.5175 8.52 28.5175C11.624 28.5175 13.96 27.9415 15.528 26.7895C17.128 25.6375 17.928 24.2935 17.928 22.7575C17.928 21.1575 17.32 19.8615 16.104 18.8695C14.888 17.8775 13.4 17.1415 11.64 16.6615C9.912 16.1495 8.168 15.6375 6.408 15.1255C4.68 14.5815 3.208 13.7495 1.992 12.6295C0.776 11.5095 0.168 10.0375 0.168 8.21349C0.168 5.7495 0.984 3.9255 2.616 2.7415C4.28 1.5255 6.376 0.917496 8.904 0.917496ZM28.9009 27.8935H44.5489L34.7089 4.7095L24.2449 29.3335H22.7089L34.7089 1.01349L46.7089 29.3335H28.9009V27.8935ZM68.217 27.8935V29.3335H52.185V1.49349H53.625V27.8935H68.217ZM91.7475 1.49349V2.9335H81.6675V29.3335H80.2275V2.9335H70.1475V1.49349H91.7475Z" fill="#161616"/>
<path d="M17.352 3.5575L17.5986 3.78172L17.8065 3.55305L17.5942 3.32849L17.352 3.5575ZM16.392 4.61349L16.1588 4.85166L16.406 5.09368L16.6386 4.83772L16.392 4.61349ZM3.432 12.0055L3.22975 12.2705L3.23427 12.2738L3.432 12.0055ZM7.848 14.0695L7.75879 14.3907L7.76029 14.3911L7.848 14.0695ZM13.08 15.6055L12.9799 15.9235L12.9869 15.9256L13.08 15.6055ZM17.544 18.1495L17.3114 18.3883L17.3148 18.3915L17.544 18.1495ZM16.632 27.9895L16.4374 27.7189L16.632 27.9895ZM3.672 29.2855L3.58376 29.6069L3.58534 29.6074L3.672 29.2855ZM0.0240002 27.3175L-0.222647 27.0933L-0.428366 27.3196L-0.220587 27.544L0.0240002 27.3175ZM0.984 26.2615L1.20989 26.0164L0.963105 25.7889L0.737354 26.0373L0.984 26.2615ZM15.528 26.7895L15.3332 26.519L15.3306 26.5209L15.528 26.7895ZM16.104 18.8695L16.3147 18.6112L16.104 18.8695ZM11.64 16.6615L11.5453 16.9812L11.5523 16.9831L11.64 16.6615ZM6.408 15.1255L6.30788 15.4435L6.31489 15.4456L6.408 15.1255ZM2.616 2.7415L2.81174 3.0113L2.81267 3.01063L2.616 2.7415ZM8.904 1.25083C12.8366 1.25083 15.539 2.12514 17.1098 3.7865L17.5942 3.32849C15.837 1.46985 12.9074 0.584162 8.904 0.584162V1.25083ZM17.1054 3.33327L16.1454 4.38927L16.6386 4.83772L17.5986 3.78172L17.1054 3.33327ZM16.6252 4.37532C15.0001 2.78411 12.4647 2.02416 9.096 2.02416V2.69083C12.3833 2.69083 14.7119 3.43488 16.1588 4.85166L16.6252 4.37532ZM9.096 2.02416C6.56476 2.02416 4.60472 2.52568 3.27259 3.58455C1.92585 4.65503 1.27467 6.25118 1.27467 8.30949H1.94133C1.94133 6.39981 2.53815 5.01996 3.68741 4.10644C4.85128 3.18131 6.63524 2.69083 9.096 2.69083V2.02416ZM1.27467 8.30949C1.27467 9.94893 1.93075 11.2791 3.22978 12.2705L3.63422 11.7405C2.50125 10.8759 1.94133 9.74207 1.94133 8.30949H1.27467ZM3.23427 12.2738C4.48841 13.198 5.99886 13.9018 7.75879 14.3907L7.93721 13.7483C6.24114 13.2772 4.80759 12.605 3.62973 11.7371L3.23427 12.2738ZM7.76029 14.3911C9.51617 14.87 11.256 15.3807 12.9799 15.9234L13.1801 15.2875C11.448 14.7422 9.69983 14.229 7.93571 13.7479L7.76029 14.3911ZM12.9869 15.9256C14.6988 16.4236 16.1377 17.2454 17.3115 18.3883L17.7765 17.9107C16.5183 16.6856 14.9812 15.8114 13.1731 15.2854L12.9869 15.9256ZM17.3148 18.3915C18.4555 19.4722 19.0347 20.9002 19.0347 22.7095H19.7013C19.7013 20.7428 19.0645 19.1308 17.7733 17.9075L17.3148 18.3915ZM19.0347 22.7095C19.0347 24.808 18.1761 26.4682 16.4374 27.7189L16.8266 28.2601C18.7359 26.8868 19.7013 25.027 19.7013 22.7095H19.0347ZM16.4374 27.7189C14.6932 28.9735 12.1334 29.6242 8.712 29.6242V30.2908C12.2026 30.2908 14.9228 29.6295 16.8266 28.2601L16.4374 27.7189ZM8.712 29.6242C7.04574 29.6242 5.39486 29.4041 3.75866 28.9636L3.58534 29.6074C5.27714 30.0629 6.98627 30.2908 8.712 30.2908V29.6242ZM3.76024 28.9641C2.16336 28.5257 1.01173 27.8936 0.268587 27.091L-0.220587 27.544C0.636268 28.4694 1.91664 29.1493 3.58376 29.6069L3.76024 28.9641ZM0.270647 27.5417L1.23065 26.4857L0.737354 26.0373L-0.222647 27.0933L0.270647 27.5417ZM0.758106 26.5066C2.47722 28.0909 5.08716 28.8508 8.52 28.8508V28.1842C5.16885 28.1842 2.75478 27.4401 1.20989 26.0164L0.758106 26.5066ZM8.52 28.8508C11.6559 28.8508 14.0751 28.2705 15.7254 27.0581L15.3306 26.5209C13.8449 27.6124 11.5921 28.1842 8.52 28.1842V28.8508ZM15.7228 27.06C17.3825 25.865 18.2613 24.4304 18.2613 22.7575H17.5947C17.5947 24.1566 16.8736 25.41 15.3332 26.519L15.7228 27.06ZM18.2613 22.7575C18.2613 21.0596 17.6101 19.6679 16.3147 18.6112L15.8933 19.1278C17.0299 20.0551 17.5947 21.2554 17.5947 22.7575H18.2613ZM16.3147 18.6112C15.0572 17.5853 13.5254 16.8302 11.7277 16.3399L11.5523 16.9831C13.2746 17.4528 14.7188 18.1697 15.8933 19.1278L16.3147 18.6112ZM11.7347 16.3419C10.0062 15.8297 8.26163 15.3176 6.50111 14.8054L6.31489 15.4456C8.07437 15.9574 9.81784 16.4693 11.5453 16.9811L11.7347 16.3419ZM6.5081 14.8075C4.82231 14.2768 3.39443 13.468 2.21783 12.3843L1.76617 12.8747C3.02157 14.031 4.53769 14.8862 6.30791 15.4434L6.5081 14.8075ZM2.21783 12.3843C1.07785 11.3343 0.501333 9.95504 0.501333 8.2135H-0.165333C-0.165333 10.1199 0.474154 11.6847 1.76617 12.8747L2.21783 12.3843ZM0.501333 8.2135C0.501333 5.82962 1.2857 4.11843 2.81174 3.0113L2.42026 2.47169C0.682298 3.73256 -0.165333 5.66937 -0.165333 8.2135H0.501333ZM2.81267 3.01063C4.40769 1.84504 6.43039 1.25083 8.904 1.25083V0.584162C6.32161 0.584162 4.15231 1.20595 2.41933 2.47236L2.81267 3.01063ZM28.9009 27.8935V27.5602H28.5675V27.8935H28.9009ZM44.5489 27.8935V28.2268H45.0525L44.8557 27.7633L44.5489 27.8935ZM34.7089 4.7095L35.0157 4.57926L34.7091 3.85676L34.4021 4.57913L34.7089 4.7095ZM24.2449 29.3335V29.6668H24.4654L24.5517 29.4639L24.2449 29.3335ZM22.7089 29.3335L22.402 29.2034L22.2056 29.6668H22.7089V29.3335ZM34.7089 1.01349L35.0158 0.883445L34.7089 0.15912L34.402 0.883445L34.7089 1.01349ZM46.7089 29.3335V29.6668H47.2121L47.0158 29.2034L46.7089 29.3335ZM28.9009 29.3335H28.5675V29.6668H28.9009V29.3335ZM28.9009 28.2268H44.5489V27.5602H28.9009V28.2268ZM44.8557 27.7633L35.0157 4.57926L34.402 4.83973L44.242 28.0237L44.8557 27.7633ZM34.4021 4.57913L23.9381 29.2031L24.5517 29.4639L35.0157 4.83986L34.4021 4.57913ZM24.2449 29.0002H22.7089V29.6668H24.2449V29.0002ZM23.0158 29.4635L35.0158 1.14354L34.402 0.883445L22.402 29.2034L23.0158 29.4635ZM34.402 1.14354L46.402 29.4635L47.0158 29.2034L35.0158 0.883445L34.402 1.14354ZM46.7089 29.0002H28.9009V29.6668H46.7089V29.0002ZM29.2342 29.3335V27.8935H28.5675V29.3335H29.2342ZM68.217 27.8935H68.5503V27.5602H68.217V27.8935ZM68.217 29.3335V29.6668H68.5503V29.3335H68.217ZM52.185 29.3335H51.8517V29.6668H52.185V29.3335ZM52.185 1.49349V1.16016H51.8517V1.49349H52.185ZM53.625 1.49349H53.9583V1.16016H53.625V1.49349ZM53.625 27.8935H53.2917V28.2268H53.625V27.8935ZM67.8837 27.8935V29.3335H68.5503V27.8935H67.8837ZM68.217 29.0002H52.185V29.6668H68.217V29.0002ZM52.5183 29.3335V1.49349H51.8517V29.3335H52.5183ZM52.185 1.82683H53.625V1.16016H52.185V1.82683ZM53.2917 1.49349V27.8935H53.9583V1.49349H53.2917ZM53.625 28.2268H68.217V27.5602H53.625V28.2268ZM91.7475 1.49349H92.0808V1.16016H91.7475V1.49349ZM91.7475 2.9335V3.26683H92.0808V2.9335H91.7475ZM81.6675 2.9335V2.60016H81.3342V2.9335H81.6675ZM81.6675 29.3335V29.6668H82.0008V29.3335H81.6675ZM80.2275 29.3335H79.8942V29.6668H80.2275V29.3335ZM80.2275 2.9335H80.5608V2.60016H80.2275V2.9335ZM70.1475 2.9335H69.8142V3.26683H70.1475V2.9335ZM70.1475 1.49349V1.16016H69.8142V1.49349H70.1475ZM91.4142 1.49349V2.9335H92.0808V1.49349H91.4142ZM91.7475 2.60016H81.6675V3.26683H91.7475V2.60016ZM81.3342 2.9335V29.3335H82.0008V2.9335H81.3342ZM81.6675 29.0002H80.2275V29.6668H81.6675V29.0002ZM80.5608 29.3335V2.9335H79.8942V29.3335H80.5608ZM80.2275 2.60016H70.1475V3.26683H80.2275V2.60016ZM70.4808 2.9335V1.49349H69.8142V2.9335H70.4808ZM70.1475 1.82683H91.7475V1.16016H70.1475V1.82683Z" fill="#161616"/>
</svg>
